:SAMPLES-PER-SECOND 30
:FULLY-SPECIFIED
:DEGREES
557
root  76.8096 39.6967 -0.77318 8.27887 85.9565 12.4108
RightUpLeg  -8.15541 -10.9025 -3.73456
RightLeg  13.7542 -1.56488 4.65945
RightFoot  -0.486457 0.213802 -2.28359
RightToes  -1.33073e-015 0 -3.6325e-017
Spine  14.7858 -2.43104 6.81929
Spine1  -5.89756 -1.02301 -3.99159
HEad  -8.45697 7.9588 1.24554
LeftShoulder1  5.43109 -11.2587 -30.7507
LeftArm  -13.834 24.4362 -27.2867
LeftForeArm  36.3632 -13.7878 -3.16183
LeftHand  -0.244104 0.0205437 5.32207
RightShoulder  4.80526 7.92024 36.0778
RightArm  -15.8643 -22.8217 22.7237
RightForeArm  -2.73803 13.4231 4.90009
RightHand  -2.39135 7.07181 -22.3238
LeftUpLeg  -8.8475 11.0112 2.87571
LeftLeg  39.0489 10.0855 9.01665
LeftFoot  -10.7872 0.0912668 -5.39948
LeftToes  -7.82198e-011 2.46994e-011 -7.94165e-012
558
root  77.2683 39.8146 -0.598468 12.9028 84.8802 16.585
RightUpLeg  -7.51141 -10.5172 -4.15851
RightLeg  12.8415 -0.904831 5.00301
RightFoot  -0.521499 0.225439 -2.41628
RightToes  -1.33073e-015 0 -3.6325e-017
Spine  14.2684 -1.78852 7.22837
Spine1  -6.96862 -0.250771 -5.65413
HEad  -6.7089 7.34136 1.95333
LeftShoulder1  4.65069 -10.7314 -26.5206
LeftArm  -14.91 25.6865 -24.8776
LeftForeArm  32.7815 -8.8424 -2.77491
LeftHand  -0.244104 0.0205437 5.32207
RightShoulder  4.57163 7.78723 34.5361
RightArm  -15.16 -21.4721 17.8977
RightForeArm  -6.7121 12.7594 5.17733
RightHand  -2.59878 7.54779 -23.307
LeftUpLeg  -9.30023 13.6869 1.53873
LeftLeg  34.1954 10.5657 7.978
LeftFoot  -11.6023 0.0527225 -6.34466
LeftToes  -7.82198e-011 2.46994e-011 -7.94165e-012
559
root  77.6953 39.9092 -0.463599 14.0548 84.3344 17.5156
RightUpLeg  -6.75368 -10.2083 -4.28026
RightLeg  12.1355 -0.639537 5.11093
RightFoot  -0.737114 0.270376 -2.96635
RightToes  -1.33073e-015 0 -3.6325e-017
Spine  13.7234 -1.4917 7.67494
Spine1  -7.42414 0.153308 -7.03773
HEad  -5.65506 7.07597 2.58199
LeftShoulder1  3.67719 -9.6167 -21.6255
LeftArm  -15.1181 26.7321 -22.6687
LeftForeArm  29.4514 -6.39191 -2.13842
LeftHand  -0.244104 0.0205437 5.32207
RightShoulder  4.24192 7.42262 32.8651
RightArm  -14.509 -19.287 12.7976
RightForeArm  -10.5283 11.7308 5.47756
RightHand  -2.93301 8.5271 -24.4447
LeftUpLeg  -8.84242 15.2767 0.524047
LeftLeg  27.4395 9.84617 5.88973
LeftFoot  -12.7163 -0.0146733 -7.86325
LeftToes  -7.82198e-011 2.46994e-011 -7.94165e-012
560
root  78.1001 39.9688 -0.363223 12.5833 84.3177 16.1256
RightUpLeg  -5.76523 -9.99893 -4.11563
RightLeg  11.6593 -0.886819 5.07356
RightFoot  -1.03803 0.33109 -3.74655
RightToes  -1.33073e-015 0 -3.6325e-017
Spine  13.2271 -1.35619 7.95913
Spine1  -7.33818 0.315394 -7.54489
HEad  -5.07143 6.93863 2.86808
LeftShoulder1  2.72425 -8.04488 -16.9732
LeftArm  -15.8285 27.3926 -20.3032
LeftForeArm  27.9725 -6.24893 -1.59945
LeftHand  -0.244104 0.0205437 5.32207
RightShoulder  3.75165 6.81437 30.4055
RightArm  -17.2917 -16.8822 8.61721
RightForeArm  -8.74206 10.6438 4.65244
RightHand  -2.79151 8.38506 -23.5093
LeftUpLeg  -7.62782 15.8245 -0.0614341
LeftLeg  19.6174 7.27221 3.13529
LeftFoot  -11.4869 0.0542487 -8.02175
LeftToes  -7.82198e-011 2.46994e-011 -7.94165e-012
561
root  78.4844 39.9899 -0.281265 9.32886 84.5179 13.1259
RightUpLeg  -4.68039 -9.9361 -3.80323
RightLeg  11.4154 -1.18645 5.00521
RightFoot  -1.33221 0.360722 -4.21655
RightToes  -1.33073e-015 0 -3.6325e-017
Spine  13.3846 -1.33859 8.83808
Spine1  -8.59752 0.523218 -9.38196
HEad  -2.89063 6.28462 4.4161
LeftShoulder1  1.82919 -7.12888 -9.57
LeftArm  -17.3074 29.3085 -19.8161
LeftForeArm  28.2455 -7.82214 -1.08561
LeftHand  -0.244104 0.0205437 5.32207
RightShoulder  3.59592 6.73855 29.1705
RightArm  -19.9724 -15.7214 3.77039
RightForeArm  -5.8344 9.75972 3.49327
RightHand  -2.45391 7.6538 -21.9413
LeftUpLeg  -6.26289 13.801 -0.169084
LeftLeg  13.2936 6.27366 1.09859
LeftFoot  -6.89478 0.207506 -4.77151
LeftToes  -7.82198e-011 2.46994e-011 -7.94165e-012
562
root  78.8418 40.005 -0.197515 6.10767 84.9024 10.1358
RightUpLeg  -3.64921 -9.88295 -3.49393
RightLeg  11.2212 -1.49141 4.90956
RightFoot  -1.73887 0.342748 -4.21511
RightToes  -1.33073e-015 0 -3.6325e-017
Spine  12.6359 -1.31055 8.87649
Spine1  -8.07016 0.654516 -10.3466
HEad  -2.08821 5.825 5.9706
LeftShoulder1  0.861118 -5.01971 -2.13852
LeftArm  -18.9805 29.5005 -20.0439
LeftForeArm  28.9156 -10.1256 -0.886276
LeftHand  -0.244104 0.0205437 5.32207
RightShoulder  3.42715 6.31587 28.5487
RightArm  -19.7529 -13.8743 -1.06937
RightForeArm  -9.79051 9.94943 3.72493
RightHand  -2.77791 8.28868 -23.4197
LeftUpLeg  -5.32832 8.84197 0.134682
LeftLeg  10.4337 8.95835 0.0645858
LeftFoot  -2.27477 0.030892 -0.0863318
LeftToes  -7.82198e-011 2.46994e-011 -7.94165e-012
563
root  79.1668 40.0378 -0.0921644 4.40222 85.6315 8.52399
RightUpLeg  -2.75772 -9.61207 -3.21779
RightLeg  10.9099 -2.32685 4.72411
RightFoot  -2.21605 0.322016 -4.21992
RightToes  -1.33073e-015 0 -3.6325e-017
Spine  11.9657 -0.311945 6.65291
Spine1  -7.58439 0.953472 -5.71937
HEad  -1.65638 4.98866 3.92469
LeftShoulder1  0.928472 -4.56285 -3.53492
LeftArm  -18.0153 27.2553 -14.2218
LeftForeArm  27.8894 -11.3237 -1.12417
LeftHand  -0.244104 0.0205437 5.32207
RightShoulder  2.03077 4.25938 19.9682
RightArm  -14.9482 -13.2707 -0.881569
RightForeArm  -17.6192 10.4247 5.69902
RightHand  -3.41212 9.69315 -25.9863
LeftUpLeg  -4.79512 7.34164 0.252382
LeftLeg  10.0807 9.21855 0.1558
LeftFoot  -0.731466 -0.154721 1.75218
LeftToes  -7.82198e-011 2.46994e-011 -7.94165e-012
564
root  79.4667 40.092 0.0302398 5.54962 86.526 9.70099
RightUpLeg  -1.86391 -9.11444 -3.00932
RightLeg  10.2991 -3.71452 4.4364
RightFoot  -2.45748 0.337104 -4.54768
RightToes  -1.33073e-015 0 -3.6325e-017
Spine  11.6916 -0.417664 5.48576
Spine1  -8.54275 0.728526 -5.93591
HEad  0.655368 4.54061 5.65782
LeftShoulder1  0.389717 -3.98304 4.05094
LeftArm  -19.8482 27.9622 -15.2814
LeftForeArm  29.6849 -12.8029 -0.896171
LeftHand  -0.244104 0.0205437 5.32207
RightShoulder  2.07471 4.40676 19.7585
RightArm  -14.7679 -11.0268 -5.18085
RightForeArm  -10.3587 6.28373 4.89795
RightHand  -2.37705 7.66417 -21.3064
LeftUpLeg  -3.89977 7.09051 0.705435
LeftLeg  9.55619 8.80567 -0.225689
LeftFoot  -1.21318 -0.0462563 0.603095
LeftToes  -7.82198e-011 2.46994e-011 -7.94165e-012
565
root  79.7416 40.1535 0.144983 11.5526 87.1458 15.6537
RightUpLeg  -1.0846 -8.65299 -2.95981
RightLeg  9.55882 -4.91252 4.09795
RightFoot  -2.48161 0.362484 -4.88954
RightToes  -1.33073e-015 0 -3.6325e-017
Spine  10.8708 -0.945976 5.48427
Spine1  -8.36363 0.534423 -9.05245
HEad  1.47908 4.03496 8.64798
LeftShoulder1  -0.181826 -2.08255 13.0402
LeftArm  -22.5532 27.331 -17.9716
LeftForeArm  31.7165 -14.1385 -0.768368
LeftHand  -0.244104 0.0205437 5.32207
RightShoulder  2.46853 4.71889 23.8568
RightArm  -13.9803 -8.09874 -10.514
RightForeArm  -15.5049 3.70891 5.32852
RightHand  -2.97208 9.71365 -22.8907
LeftUpLeg  -2.6926 6.51322 1.15417
LeftLeg  7.82853 8.86767 -1.36646
LeftFoot  -1.17773 0.0302045 -0.263434
LeftToes  -7.82198e-011 2.46994e-011 -7.94165e-012
566
root  79.9813 40.2079 0.213505 20.3193 87.4466 24.3441
RightUpLeg  -0.465784 -8.41535 -3.07413
RightLeg  8.95456 -5.53495 3.84137
RightFoot  -2.57778 0.359679 -4.91477
RightToes  -1.33073e-015 0 -3.6325e-017
Spine  10.5532 -0.794919 4.8798
Spine1  -8.76895 0.649498 -9.49758
HEad  2.48889 3.35069 9.13153
LeftShoulder1  -0.281889 -1.60203 15.8995
LeftArm  -22.7992 25.5362 -16.7764
LeftForeArm  31.553 -14.7203 -0.96758
LeftHand  -0.244104 0.0205437 5.32207
RightShoulder  2.32241 4.49064 22.8312
RightArm  -14.5348 -8.2347 -11.8692
RightForeArm  -13.7049 3.35739 4.94575
RightHand  -3.8185 12.7925 -24.2759
LeftUpLeg  -1.61609 5.38826 1.20468
LeftLeg  5.99878 9.53872 -2.33173
LeftFoot  -0.332668 -0.0399329 0.43266
LeftToes  -7.82198e-011 2.46994e-011 -7.94165e-012
